<svg xmlns="http://www.w3.org/2000/svg" data-name="Artboard 30" viewBox="0 0 64 64" id="popcorn"><path d="M42 19a2 2 0 012 2h2a4 4 0 00-8 0h2A2 2 0 0142 19zM22 19a2 2 0 012 2h2a4 4 0 00-8 0h2A2 2 0 0122 19zM32 24a2 2 0 012 2h2a4 4 0 00-8 0h2A2 2 0 0132 24zM32 11a2 2 0 012 2h2a4 4 0 00-8 0h2A2 2 0 0132 11z"></path><path d="M7,47a4.044,4.044,0,0,0,.517-.033A4.009,4.009,0,0,0,11,49a4.062,4.062,0,0,0,2.03-.548L14,62.071A1,1,0,0,0,15,63H49a1,1,0,0,0,1-.929l.666-9.318A3.959,3.959,0,0,0,52,53a4.044,4.044,0,0,0,.517-.033,4,4,0,0,0,7.309-3.134A4,4,0,1,0,53.4,45.254a3.976,3.976,0,0,0-2.192-.174l.723-10.124a3.484,3.484,0,0,0,.851-6.7A4.957,4.957,0,0,0,54.019,25a5.012,5.012,0,0,0-2-4,5.028,5.028,0,0,0,.889-2.006c.032,0,.062.006.094.006a4,4,0,0,0,3.826-5.167A4,4,0,1,0,50.4,9.254,3.911,3.911,0,0,0,48.129,9.1a5.113,5.113,0,0,0-4.189-.985,5,5,0,0,0-7.161-3.588,5,5,0,0,0-9.556-.008,5,5,0,0,0-7.145,3.6A5,5,0,0,0,14,13c0,.137.006.274.017.41A5,5,0,0,0,12,21a5.017,5.017,0,0,0-2,4,4.953,4.953,0,0,0,1.23,3.247,3.484,3.484,0,0,0,.836,6.709l.147,2.06C12.142,37.01,12.07,37,12,37a4.018,4.018,0,0,0-3.6,2.254A4,4,0,1,0,7,47Zm7.074-12h4.995l1.857,26H15.931ZM32,41a6,6,0,1,1-6,6A6.006,6.006,0,0,1,32,41Zm0,14a7.945,7.945,0,0,0,3-.589V61H29V54.411A7.945,7.945,0,0,0,32,55Zm5-1.765a7.979,7.979,0,0,0,0-12.47V35h5.926L41.069,61H37ZM35,39.589a7.935,7.935,0,0,0-6,0V35h6Zm-8,1.176a7.979,7.979,0,0,0,0,12.47V61H22.931L21.074,35H27ZM43.074,61l1.857-26h5l-.8,11.232a3.958,3.958,0,0,0-.364,5.095L48.069,61ZM53.337,47.515a1,1,0,0,0,1.669-.667,2,2,0,1,1,3.07,1.836,1,1,0,0,0-.332,1.336,2,2,0,1,1-3.674,1.508,1,1,0,0,0-1.332-.668,2,2,0,1,1,.6-3.345Zm-3-36a1,1,0,0,0,1.669-.667,2,2,0,1,1,3.07,1.836,1,1,0,0,0-.332,1.336,2,2,0,1,1-3.674,1.508,1,1,0,0,0-1.332-.668,2,2,0,1,1,.6-3.345ZM13.985,22.177a1,1,0,0,0,.252-1.75,3,3,0,0,1,1.124-5.359,1,1,0,0,0,.752-1.248A3,3,0,0,1,19,10a2.988,2.988,0,0,1,1.527.418,1,1,0,0,0,1.5-1A3.247,3.247,0,0,1,22,9a3,3,0,0,1,5.263-1.969,1,1,0,0,0,1.75-.75C29,6.188,29,6.1,29,6a3,3,0,0,1,6,0c0,.094,0,.187-.013.279a1.012,1.012,0,0,0,.237.737,1.024,1.024,0,0,0,.693.356.987.987,0,0,0,.837-.34A3,3,0,0,1,42.019,9a3.053,3.053,0,0,1-.03.42,1,1,0,0,0,1.5,1,3.049,3.049,0,0,1,2.622-.171A3.99,3.99,0,0,0,49,17a4.044,4.044,0,0,0,.517-.033,4,4,0,0,0,1.449,1.475,3,3,0,0,1-1.183,1.984,1,1,0,0,0,.25,1.749A3,3,0,0,1,49.019,28H15a3,3,0,0,1-1.015-5.823ZM11,31.5A1.5,1.5,0,0,1,12.5,30h39a1.5,1.5,0,0,1,0,3h-39A1.5,1.5,0,0,1,11,31.5ZM7,41a1.986,1.986,0,0,1,1.337.515,1,1,0,0,0,1.669-.667A2.006,2.006,0,0,1,12,39a1.826,1.826,0,0,1,.358.048l.482,6.745A1.94,1.94,0,0,1,11,47a2,2,0,0,1-1.93-1.472,1,1,0,0,0-1.332-.668A2,2,0,1,1,7,41Z"></path><rect width="8" height="2" x="28" y="46"></rect></svg>